<?xml version="1.0" encoding="UTF-8"?>
<svg width="1024" height="1024" viewBox="0 0 1024 1024" xmlns="http://www.w3.org/2000/svg">
  <defs>
    <polygon id="hex" points="256,68.594688 768,68.594688 1024,512 768,955.405312 256,955.405312 0,512" />
    <clipPath id="hex-clip">
      <use href="#hex" />
    </clipPath>
    <filter id="edge-blur">
      <feGaussianBlur stdDeviation="6" />
    </filter>
    <filter id="soft-stitch">
      <feGaussianBlur stdDeviation="0.8" />
    </filter>
  </defs>
  <g clip-path="url(#hex-clip)">
    <use href="#hex" fill="transparent" />
    <use href="#hex" fill="none" stroke="black" stroke-width="6" filter="url(#edge-blur)" />
    <g stroke="black" stroke-width="5" stroke-linecap="round" filter="url(#soft-stitch)">
      <line x1="256.000" y1="68.595" x2="259.500" y2="74.657" />
      <line x1="768.000" y1="68.595" x2="764.500" y2="74.657" />
      <line x1="1024.000" y1="512.000" x2="1017.000" y2="512.000" />
      <line x1="768.000" y1="955.405" x2="764.500" y2="949.343" />
      <line x1="256.000" y1="955.405" x2="259.500" y2="949.343" />
      <line x1="0.000" y1="512.000" x2="7.000" y2="512.000" />
      <line x1="298.667" y1="68.595" x2="298.667" y2="75.595" />
      <line x1="341.333" y1="68.595" x2="341.333" y2="75.595" />
      <line x1="384.000" y1="68.595" x2="384.000" y2="75.595" />
      <line x1="426.667" y1="68.595" x2="426.667" y2="75.595" />
      <line x1="469.333" y1="68.595" x2="469.333" y2="75.595" />
      <line x1="512.000" y1="68.595" x2="512.000" y2="75.595" />
      <line x1="554.667" y1="68.595" x2="554.667" y2="75.595" />
      <line x1="597.333" y1="68.595" x2="597.333" y2="75.595" />
      <line x1="640.000" y1="68.595" x2="640.000" y2="75.595" />
      <line x1="682.667" y1="68.595" x2="682.667" y2="75.595" />
      <line x1="725.333" y1="68.595" x2="725.333" y2="75.595" />
      <line x1="789.333" y1="105.545" x2="783.271" y2="109.045" />
      <line x1="810.667" y1="142.496" x2="804.605" y2="145.996" />
      <line x1="832.000" y1="179.446" x2="825.938" y2="182.946" />
      <line x1="853.333" y1="216.397" x2="847.271" y2="219.897" />
      <line x1="874.667" y1="253.347" x2="868.605" y2="256.847" />
      <line x1="896.000" y1="290.298" x2="889.938" y2="293.798" />
      <line x1="917.333" y1="327.248" x2="911.271" y2="330.748" />
      <line x1="938.667" y1="364.198" x2="932.605" y2="367.698" />
      <line x1="960.000" y1="401.149" x2="953.938" y2="404.649" />
      <line x1="981.333" y1="438.099" x2="975.271" y2="441.599" />
      <line x1="1002.667" y1="475.050" x2="996.605" y2="478.550" />
      <line x1="1002.667" y1="548.950" x2="996.605" y2="545.450" />
      <line x1="981.333" y1="585.901" x2="975.271" y2="582.401" />
      <line x1="960.000" y1="622.851" x2="953.938" y2="619.351" />
      <line x1="938.667" y1="659.802" x2="932.605" y2="656.302" />
      <line x1="917.333" y1="696.752" x2="911.271" y2="693.252" />
      <line x1="896.000" y1="733.702" x2="889.938" y2="730.202" />
      <line x1="874.667" y1="770.653" x2="868.605" y2="767.153" />
      <line x1="853.333" y1="807.603" x2="847.271" y2="804.103" />
      <line x1="832.000" y1="844.554" x2="825.938" y2="841.054" />
      <line x1="810.667" y1="881.504" x2="804.605" y2="878.004" />
      <line x1="789.333" y1="918.455" x2="783.271" y2="914.955" />
      <line x1="725.333" y1="955.405" x2="725.333" y2="948.405" />
      <line x1="682.667" y1="955.405" x2="682.667" y2="948.405" />
      <line x1="640.000" y1="955.405" x2="640.000" y2="948.405" />
      <line x1="597.333" y1="955.405" x2="597.333" y2="948.405" />
      <line x1="554.667" y1="955.405" x2="554.667" y2="948.405" />
      <line x1="512.000" y1="955.405" x2="512.000" y2="948.405" />
      <line x1="469.333" y1="955.405" x2="469.333" y2="948.405" />
      <line x1="426.667" y1="955.405" x2="426.667" y2="948.405" />
      <line x1="384.000" y1="955.405" x2="384.000" y2="948.405" />
      <line x1="341.333" y1="955.405" x2="341.333" y2="948.405" />
      <line x1="298.667" y1="955.405" x2="298.667" y2="948.405" />
      <line x1="234.667" y1="918.455" x2="240.729" y2="914.955" />
      <line x1="213.333" y1="881.504" x2="219.395" y2="878.004" />
      <line x1="192.000" y1="844.554" x2="198.062" y2="841.054" />
      <line x1="170.667" y1="807.603" x2="176.729" y2="804.103" />
      <line x1="149.333" y1="770.653" x2="155.395" y2="767.153" />
      <line x1="128.000" y1="733.702" x2="134.062" y2="730.202" />
      <line x1="106.667" y1="696.752" x2="112.729" y2="693.252" />
      <line x1="85.333"  y1="659.802" x2="91.395"  y2="656.302" />
      <line x1="64.000"  y1="622.851" x2="70.062"  y2="619.351" />
      <line x1="42.667"  y1="585.901" x2="48.729"  y2="582.401" />
      <line x1="21.333"  y1="548.950" x2="27.395"  y2="545.450" />
      <line x1="21.333"  y1="475.050" x2="27.395"  y2="478.550" />
      <line x1="42.667"  y1="438.099" x2="48.729"  y2="441.599" />
      <line x1="64.000"  y1="401.149" x2="70.062"  y2="404.649" />
      <line x1="85.333"  y1="364.198" x2="91.395"  y2="367.698" />
      <line x1="106.667" y1="327.248" x2="112.729" y2="330.748" />
      <line x1="128.000" y1="290.298" x2="134.062" y2="293.798" />
      <line x1="149.333" y1="253.347" x2="155.395" y2="256.847" />
      <line x1="170.667" y1="216.397" x2="176.729" y2="219.897" />
      <line x1="192.000" y1="179.446" x2="198.062" y2="182.946" />
      <line x1="213.333" y1="142.496" x2="219.395" y2="145.996" />
      <line x1="234.667" y1="105.545" x2="240.729" y2="109.045" />
    </g>
  </g>
</svg>
