<?xml version="1.0" encoding="UTF-8"?>
<svg width="1024" height="1024" viewBox="0 0 1024 1024" xmlns="http://www.w3.org/2000/svg">
  <path d="M 256 68.594688 L 281 111.895988" stroke="#4A4A4A" stroke-width="8px" fill="none"/>
  <path d="M 298.667008 68.594688 L 298.667008 118.594688" stroke="#4A4A4A" stroke-width="8px" fill="none"/>
  <path d="M 341.332992 68.594688 L 341.332992 118.594688" stroke="#4A4A4A" stroke-width="8px" fill="none"/>
  <path d="M 384 68.594688 L 384 118.594688" stroke="#4A4A4A" stroke-width="8px" fill="none"/>
  <path d="M 426.667008 68.594688 L 426.667008 118.594688" stroke="#4A4A4A" stroke-width="8px" fill="none"/>
  <path d="M 469.332992 68.594688 L 469.332992 118.594688" stroke="#4A4A4A" stroke-width="8px" fill="none"/>
  <path d="M 512 68.594688 L 512 118.594688" stroke="#4A4A4A" stroke-width="8px" fill="none"/>
  <path d="M 554.667008 68.594688 L 554.667008 118.594688" stroke="#4A4A4A" stroke-width="8px" fill="none"/>
  <path d="M 597.332992 68.594688 L 597.332992 118.594688" stroke="#4A4A4A" stroke-width="8px" fill="none"/>
  <path d="M 640 68.594688 L 640 118.594688" stroke="#4A4A4A" stroke-width="8px" fill="none"/>
  <path d="M 682.667008 68.594688 L 682.667008 118.594688" stroke="#4A4A4A" stroke-width="8px" fill="none"/>
  <path d="M 725.332992 68.594688 L 725.332992 118.594688" stroke="#4A4A4A" stroke-width="8px" fill="none"/>
  <path d="M 768 68.594688 L 743 111.895988" stroke="#4A4A4A" stroke-width="8px" fill="none"/>
  <path d="M 789.332992 105.544704 L 746.031692 130.544704" stroke="#4A4A4A" stroke-width="8px" fill="none"/>
  <path d="M 810.667008 142.495744 L 767.365708 167.495744" stroke="#4A4A4A" stroke-width="8px" fill="none"/>
  <path d="M 832 179.44576 L 788.6987 204.44576" stroke="#4A4A4A" stroke-width="8px" fill="none"/>
  <path d="M 853.332992 216.3968 L 810.031692 241.3968" stroke="#4A4A4A" stroke-width="8px" fill="none"/>
  <path d="M 874.667008 253.346816 L 831.365708 278.346816" stroke="#4A4A4A" stroke-width="8px" fill="none"/>
  <path d="M 896 290.297856 L 852.6987 315.297856" stroke="#4A4A4A" stroke-width="8px" fill="none"/>
  <path d="M 917.332992 327.247872 L 874.031692 352.247872" stroke="#4A4A4A" stroke-width="8px" fill="none"/>
  <path d="M 938.667008 364.197888 L 895.365708 389.197888" stroke="#4A4A4A" stroke-width="8px" fill="none"/>
  <path d="M 960 401.148928 L 916.6987 426.148928" stroke="#4A4A4A" stroke-width="8px" fill="none"/>
  <path d="M 981.332992 438.098944 L 938.031692 463.098944" stroke="#4A4A4A" stroke-width="8px" fill="none"/>
  <path d="M 1002.667008 475.049984 L 959.365708 500.049984" stroke="#4A4A4A" stroke-width="8px" fill="none"/>
  <path d="M 1024 512 L 974 512" stroke="#4A4A4A" stroke-width="8px" fill="none"/>
  <path d="M 1002.667008 548.950016 L 959.365708 523.950016" stroke="#4A4A4A" stroke-width="8px" fill="none"/>
  <path d="M 981.332992 585.901056 L 938.031692 560.901056" stroke="#4A4A4A" stroke-width="8px" fill="none"/>
  <path d="M 960 622.851072 L 916.6987 597.851072" stroke="#4A4A4A" stroke-width="8px" fill="none"/>
  <path d="M 938.667008 659.802112 L 895.365708 634.802112" stroke="#4A4A4A" stroke-width="8px" fill="none"/>
  <path d="M 917.332992 696.752128 L 874.031692 671.752128" stroke="#4A4A4A" stroke-width="8px" fill="none"/>
  <path d="M 896 733.702144 L 852.6987 708.702144" stroke="#4A4A4A" stroke-width="8px" fill="none"/>
  <path d="M 874.667008 770.653184 L 831.365708 745.653184" stroke="#4A4A4A" stroke-width="8px" fill="none"/>
  <path d="M 853.332992 807.6032 L 810.031692 782.6032" stroke="#4A4A4A" stroke-width="8px" fill="none"/>
  <path d="M 832 844.55424 L 788.6987 819.55424" stroke="#4A4A4A" stroke-width="8px" fill="none"/>
  <path d="M 810.667008 881.504256 L 767.365708 856.504256" stroke="#4A4A4A" stroke-width="8px" fill="none"/>
  <path d="M 789.332992 918.455296 L 746.031692 893.455296" stroke="#4A4A4A" stroke-width="8px" fill="none"/>
  <path d="M 768 955.405312 L 743 912.104012" stroke="#4A4A4A" stroke-width="8px" fill="none"/>
  <path d="M 725.332992 955.405312 L 725.332992 905.405312" stroke="#4A4A4A" stroke-width="8px" fill="none"/>
  <path d="M 682.667008 955.405312 L 682.667008 905.405312" stroke="#4A4A4A" stroke-width="8px" fill="none"/>
  <path d="M 640 955.405312 L 640 905.405312" stroke="#4A4A4A" stroke-width="8px" fill="none"/>
  <path d="M 597.332992 955.405312 L 597.332992 905.405312" stroke="#4A4A4A" stroke-width="8px" fill="none"/>
  <path d="M 554.667008 955.405312 L 554.667008 905.405312" stroke="#4A4A4A" stroke-width="8px" fill="none"/>
  <path d="M 512 955.405312 L 512 905.405312" stroke="#4A4A4A" stroke-width="8px" fill="none"/>
  <path d="M 469.332992 955.405312 L 469.332992 905.405312" stroke="#4A4A4A" stroke-width="8px" fill="none"/>
  <path d="M 426.667008 955.405312 L 426.667008 905.405312" stroke="#4A4A4A" stroke-width="8px" fill="none"/>
  <path d="M 384 955.405312 L 384 905.405312" stroke="#4A4A4A" stroke-width="8px" fill="none"/>
  <path d="M 341.332992 955.405312 L 341.332992 905.405312" stroke="#4A4A4A" stroke-width="8px" fill="none"/>
  <path d="M 298.667008 955.405312 L 298.667008 905.405312" stroke="#4A4A4A" stroke-width="8px" fill="none"/>
  <path d="M 256 955.405312 L 281 912.104012" stroke="#4A4A4A" stroke-width="8px" fill="none"/>
  <path d="M 234.667008 918.455296 L 277.968308 893.455296" stroke="#4A4A4A" stroke-width="8px" fill="none"/>
  <path d="M 213.332992 881.504256 L 256.634292 856.504256" stroke="#4A4A4A" stroke-width="8px" fill="none"/>
  <path d="M 192 844.55424 L 235.3013 819.55424" stroke="#4A4A4A" stroke-width="8px" fill="none"/>
  <path d="M 170.667008 807.6032 L 213.968308 782.6032" stroke="#4A4A4A" stroke-width="8px" fill="none"/>
  <path d="M 149.332992 770.653184 L 192.634292 745.653184" stroke="#4A4A4A" stroke-width="8px" fill="none"/>
  <path d="M 128 733.702144 L 171.3013 708.702144" stroke="#4A4A4A" stroke-width="8px" fill="none"/>
  <path d="M 106.667008 696.752128 L 149.968308 671.752128" stroke="#4A4A4A" stroke-width="8px" fill="none"/>
  <path d="M 85.332992 659.802112 L 128.634292 634.802112" stroke="#4A4A4A" stroke-width="8px" fill="none"/>
  <path d="M 64 622.851072 L 107.3013 597.851072" stroke="#4A4A4A" stroke-width="8px" fill="none"/>
  <path d="M 42.667008 585.901056 L 85.968308 560.901056" stroke="#4A4A4A" stroke-width="8px" fill="none"/>
  <path d="M 21.332992 548.950016 L 64.634292 523.950016" stroke="#4A4A4A" stroke-width="8px" fill="none"/>
  <path d="M 0 512 L 50 512" stroke="#4A4A4A" stroke-width="8px" fill="none"/>
  <path d="M 21.332992 475.049984 L 64.634292 500.049984" stroke="#4A4A4A" stroke-width="8px" fill="none"/>
  <path d="M 42.667008 438.098944 L 85.968308 463.098944" stroke="#4A4A4A" stroke-width="8px" fill="none"/>
  <path d="M 64 401.148928 L 107.3013 426.148928" stroke="#4A4A4A" stroke-width="8px" fill="none"/>
  <path d="M 85.332992 364.197888 L 128.634292 389.197888" stroke="#4A4A4A" stroke-width="8px" fill="none"/>
  <path d="M 106.667008 327.247872 L 149.968308 352.247872" stroke="#4A4A4A" stroke-width="8px" fill="none"/>
  <path d="M 128 290.297856 L 171.3013 315.297856" stroke="#4A4A4A" stroke-width="8px" fill="none"/>
  <path d="M 149.332992 253.346816 L 192.634292 278.346816" stroke="#4A4A4A" stroke-width="8px" fill="none"/>
  <path d="M 170.667008 216.3968 L 213.968308 241.3968" stroke="#4A4A4A" stroke-width="8px" fill="none"/>
  <path d="M 192 179.44576 L 235.3013 204.44576" stroke="#4A4A4A" stroke-width="8px" fill="none"/>
  <path d="M 213.332992 142.495744 L 256.634292 167.495744" stroke="#4A4A4A" stroke-width="8px" fill="none"/>
  <path d="M 234.667008 105.544704 L 277.968308 130.544704" stroke="#4A4A4A" stroke-width="8px" fill="none"/>
</svg>
