<svg xmlns="http://www.w3.org/2000/svg" viewBox="0 0 1024 1024" width="100%" height="100%">
  <circle cx="256" cy="68.594688" r="8" fill="grey" />
  <circle cx="298.667008" cy="68.594688" r="8" fill="grey" />
  <circle cx="341.332992" cy="68.594688" r="8" fill="grey" />
  <circle cx="384" cy="68.594688" r="8" fill="grey" />
  <circle cx="426.667008" cy="68.594688" r="8" fill="grey" />
  <circle cx="469.332992" cy="68.594688" r="8" fill="grey" />
  <circle cx="512" cy="68.594688" r="8" fill="grey" />
  <circle cx="554.667008" cy="68.594688" r="8" fill="grey" />
  <circle cx="597.332992" cy="68.594688" r="8" fill="grey" />
  <circle cx="640" cy="68.594688" r="8" fill="grey" />
  <circle cx="682.667008" cy="68.594688" r="8" fill="grey" />
  <circle cx="725.332992" cy="68.594688" r="8" fill="grey" />
  <circle cx="768" cy="68.594688" r="8" fill="grey" />
  <circle cx="789.332992" cy="105.544704" r="8" fill="grey" />
  <circle cx="810.667008" cy="142.495744" r="8" fill="grey" />
  <circle cx="832" cy="179.44576" r="8" fill="grey" />
  <circle cx="853.332992" cy="216.3968" r="8" fill="grey" />
  <circle cx="874.667008" cy="253.346816" r="8" fill="grey" />
  <circle cx="896" cy="290.297856" r="8" fill="grey" />
  <circle cx="917.332992" cy="327.247872" r="8" fill="grey" />
  <circle cx="938.667008" cy="364.197888" r="8" fill="grey" />
  <circle cx="960" cy="401.148928" r="8" fill="grey" />
  <circle cx="981.332992" cy="438.098944" r="8" fill="grey" />
  <circle cx="1002.667008" cy="475.049984" r="8" fill="grey" />
  <circle cx="1024" cy="512" r="8" fill="grey" />
  <circle cx="1002.667008" cy="548.950016" r="8" fill="grey" />
  <circle cx="981.332992" cy="585.901056" r="8" fill="grey" />
  <circle cx="960" cy="622.851072" r="8" fill="grey" />
  <circle cx="938.667008" cy="659.802112" r="8" fill="grey" />
  <circle cx="917.332992" cy="696.752128" r="8" fill="grey" />
  <circle cx="896" cy="733.702144" r="8" fill="grey" />
  <circle cx="874.667008" cy="770.653184" r="8" fill="grey" />
  <circle cx="853.332992" cy="807.6032" r="8" fill="grey" />
  <circle cx="832" cy="844.55424" r="8" fill="grey" />
  <circle cx="810.667008" cy="881.504256" r="8" fill="grey" />
  <circle cx="789.332992" cy="918.455296" r="8" fill="grey" />
  <circle cx="768" cy="955.405312" r="8" fill="grey" />
  <circle cx="725.332992" cy="955.405312" r="8" fill="grey" />
  <circle cx="682.667008" cy="955.405312" r="8" fill="grey" />
  <circle cx="640" cy="955.405312" r="8" fill="grey" />
  <circle cx="597.332992" cy="955.405312" r="8" fill="grey" />
  <circle cx="554.667008" cy="955.405312" r="8" fill="grey" />
  <circle cx="512" cy="955.405312" r="8" fill="grey" />
  <circle cx="469.332992" cy="955.405312" r="8" fill="grey" />
  <circle cx="426.667008" cy="955.405312" r="8" fill="grey" />
  <circle cx="384" cy="955.405312" r="8" fill="grey" />
  <circle cx="341.332992" cy="955.405312" r="8" fill="grey" />
  <circle cx="298.667008" cy="955.405312" r="8" fill="grey" />
  <circle cx="256" cy="955.405312" r="8" fill="grey" />
  <circle cx="234.667008" cy="918.455296" r="8" fill="grey" />
  <circle cx="213.332992" cy="881.504256" r="8" fill="grey" />
  <circle cx="192" cy="844.55424" r="8" fill="grey" />
  <circle cx="170.667008" cy="807.6032" r="8" fill="grey" />
  <circle cx="149.332992" cy="770.653184" r="8" fill="grey" />
  <circle cx="128" cy="733.702144" r="8" fill="grey" />
  <circle cx="106.667008" cy="696.752128" r="8" fill="grey" />
  <circle cx="85.332992" cy="659.802112" r="8" fill="grey" />
  <circle cx="64" cy="622.851072" r="8" fill="grey" />
  <circle cx="42.667008" cy="585.901056" r="8" fill="grey" />
  <circle cx="21.332992" cy="548.950016" r="8" fill="grey" />
  <circle cx="0" cy="512" r="8" fill="grey" />
  <circle cx="21.332992" cy="475.049984" r="8" fill="grey" />
  <circle cx="42.667008" cy="438.098944" r="8" fill="grey" />
  <circle cx="64" cy="401.148928" r="8" fill="grey" />
  <circle cx="85.332992" cy="364.197888" r="8" fill="grey" />
  <circle cx="106.667008" cy="327.247872" r="8" fill="grey" />
  <circle cx="128" cy="290.297856" r="8" fill="grey" />
  <circle cx="149.332992" cy="253.346816" r="8" fill="grey" />
  <circle cx="170.667008" cy="216.3968" r="8" fill="grey" />
  <circle cx="192" cy="179.44576" r="8" fill="grey" />
  <circle cx="213.332992" cy="142.495744" r="8" fill="grey" />
  <circle cx="234.667008" cy="105.544704" r="8" fill="grey" />
</svg>
