<svg xmlns="http://www.w3.org/2000/svg" viewBox="0 0 1024 1024" width="100%" height="100%">
  <circle cx="256" cy="159.64672" r="8" fill="grey" />
  <circle cx="298.667008" cy="159.64672" r="8" fill="grey" />
  <circle cx="341.333" cy="159.64672" r="8" fill="grey" />
  <circle cx="384" cy="159.64672" r="8" fill="grey" />
  <circle cx="426.667008" cy="159.64672" r="8" fill="grey" />
  <circle cx="469.333" cy="159.64672" r="8" fill="grey" />
  <circle cx="512" cy="159.64672" r="8" fill="grey" />
  <circle cx="554.667008" cy="159.64672" r="8" fill="grey" />
  <circle cx="597.333" cy="159.64672" r="8" fill="grey" />
  <circle cx="640" cy="159.64672" r="8" fill="grey" />
  <circle cx="682.667008" cy="159.64672" r="8" fill="grey" />
  <circle cx="725.333" cy="159.64672" r="8" fill="grey" />
  <circle cx="768" cy="159.64672" r="8" fill="grey" />
  <circle cx="781.185024" cy="200.224768" r="8" fill="grey" />
  <circle cx="794.369024" cy="240.80384" r="8" fill="grey" />
  <circle cx="807.554048" cy="281.381888" r="8" fill="grey" />
  <circle cx="820.739072" cy="321.959936" r="8" fill="grey" />
  <circle cx="833.923072" cy="362.539008" r="8" fill="grey" />
  <circle cx="847.108096" cy="403.117056" r="8" fill="grey" />
  <circle cx="860.29312" cy="443.695104" r="8" fill="grey" />
  <circle cx="873.47712" cy="484.274176" r="8" fill="grey" />
  <circle cx="886.662144" cy="524.852224" r="8" fill="grey" />
  <circle cx="899.847168" cy="565.430272" r="8" fill="grey" />
  <circle cx="913.031168" cy="606.009344" r="8" fill="grey" />
  <circle cx="926.216192" cy="646.587392" r="8" fill="grey" />
  <circle cx="891.698176" cy="671.666176" r="8" fill="grey" />
  <circle cx="857.18016" cy="696.74496" r="8" fill="grey" />
  <circle cx="822.662144" cy="721.823744" r="8" fill="grey" />
  <circle cx="788.144128" cy="746.902528" r="8" fill="grey" />
  <circle cx="753.626112" cy="771.981312" r="8" fill="grey" />
  <circle cx="719.108096" cy="797.060096" r="8" fill="grey" />
  <circle cx="684.59008" cy="822.13888" r="8" fill="grey" />
  <circle cx="650.072064" cy="847.217664" r="8" fill="grey" />
  <circle cx="615.554048" cy="872.296448" r="8" fill="grey" />
  <circle cx="581.036032" cy="897.375232" r="8" fill="grey" />
  <circle cx="546.518016" cy="922.454016" r="8" fill="grey" />
  <circle cx="512" cy="947.5328" r="8" fill="grey" />
  <circle cx="477.481984" cy="922.454016" r="8" fill="grey" />
  <circle cx="442.963968" cy="897.375232" r="8" fill="grey" />
  <circle cx="408.445952" cy="872.296448" r="8" fill="grey" />
  <circle cx="373.927936" cy="847.217664" r="8" fill="grey" />
  <circle cx="339.40992" cy="822.13888" r="8" fill="grey" />
  <circle cx="304.891904" cy="797.060096" r="8" fill="grey" />
  <circle cx="270.373888" cy="771.981312" r="8" fill="grey" />
  <circle cx="235.855872" cy="746.902528" r="8" fill="grey" />
  <circle cx="201.337856" cy="721.823744" r="8" fill="grey" />
  <circle cx="166.81984" cy="696.74496" r="8" fill="grey" />
  <circle cx="132.301824" cy="671.666176" r="8" fill="grey" />
  <circle cx="97.783808" cy="646.587392" r="8" fill="grey" />
  <circle cx="110.968832" cy="606.009344" r="8" fill="grey" />
  <circle cx="124.152832" cy="565.430272" r="8" fill="grey" />
  <circle cx="137.337856" cy="524.852224" r="8" fill="grey" />
  <circle cx="150.52288" cy="484.274176" r="8" fill="grey" />
  <circle cx="163.70688" cy="443.695104" r="8" fill="grey" />
  <circle cx="176.891904" cy="403.117056" r="8" fill="grey" />
  <circle cx="190.076928" cy="362.539008" r="8" fill="grey" />
  <circle cx="203.260928" cy="321.959936" r="8" fill="grey" />
  <circle cx="216.445952" cy="281.381888" r="8" fill="grey" />
  <circle cx="229.630976" cy="240.80384" r="8" fill="grey" />
  <circle cx="242.814976" cy="200.224768" r="8" fill="grey" />
</svg>
