<svg height="1024" width="1024" xmlns="http://www.w3.org/2000/svg">
  <circle r="5" cx="256.0" cy="68.594993262" fill="black"/>
  <circle r="5" cx="341.333333333" cy="216.396662175" fill="black"/>
  <circle r="5" cx="170.666666667" cy="216.396662175" fill="black"/>
  <circle r="5" cx="426.666666667" cy="68.594993262" fill="black"/>
  <circle r="5" cx="512.0" cy="216.396662175" fill="black"/>
  <circle r="5" cx="597.333333333" cy="68.594993262" fill="black"/>
  <circle r="5" cx="682.666666667" cy="216.396662175" fill="black"/>
  <circle r="5" cx="768.0" cy="68.594993262" fill="black"/>
  <circle r="5" cx="853.333333333" cy="216.396662175" fill="black"/>
  <circle r="5" cx="256.0" cy="364.198331087" fill="black"/>
  <circle r="5" cx="85.333333333" cy="364.198331087" fill="black"/>
  <circle r="5" cx="426.666666667" cy="364.198331087" fill="black"/>
  <circle r="5" cx="597.333333333" cy="364.198331087" fill="black"/>
  <circle r="5" cx="768.0" cy="364.198331087" fill="black"/>
  <circle r="5" cx="938.666666667" cy="364.198331087" fill="black"/>
  <circle r="5" cx="170.666666667" cy="512.0" fill="black"/>
  <circle r="5" cx="0.0" cy="512.0" fill="black"/>
  <circle r="5" cx="341.333333333" cy="512.0" fill="black"/>
  <circle r="5" cx="512.0" cy="512.0" fill="black"/>
  <circle r="5" cx="682.666666667" cy="512.0" fill="black"/>
  <circle r="5" cx="853.333333333" cy="512.0" fill="black"/>
  <circle r="5" cx="1024.0" cy="512.0" fill="black"/>
  <circle r="5" cx="85.333333333" cy="659.801668913" fill="black"/>
  <circle r="5" cx="256.0" cy="659.801668913" fill="black"/>
  <circle r="5" cx="426.666666667" cy="659.801668913" fill="black"/>
  <circle r="5" cx="597.333333333" cy="659.801668913" fill="black"/>
  <circle r="5" cx="768.0" cy="659.801668913" fill="black"/>
  <circle r="5" cx="938.666666667" cy="659.801668913" fill="black"/>
  <circle r="5" cx="170.666666667" cy="807.603337825" fill="black"/>
  <circle r="5" cx="341.333333333" cy="807.603337825" fill="black"/>
  <circle r="5" cx="512.0" cy="807.603337825" fill="black"/>
  <circle r="5" cx="682.666666667" cy="807.603337825" fill="black"/>
  <circle r="5" cx="853.333333333" cy="807.603337825" fill="black"/>
  <circle r="5" cx="256.0" cy="955.405006738" fill="black"/>
  <circle r="5" cx="426.666666667" cy="955.405006738" fill="black"/>
  <circle r="5" cx="597.333333333" cy="955.405006738" fill="black"/>
  <circle r="5" cx="768.0" cy="955.405006738" fill="black"/>
</svg>