<svg height="1024" width="1024" xmlns="http://www.w3.org/2000/svg">
  <path d="M257.5,952.806930527L256.0,955.405006738L254.5,958.003082949L" fill="none" stroke="black" stroke-width="3" stroke-linecap="round"/>
  <path d="M312.888888889,952.405006738L312.888888889,955.405006738L312.888888889,958.405006738L" fill="none" stroke="black" stroke-width="3" stroke-linecap="round"/>
  <path d="M369.777777778,952.405006738L369.777777778,955.405006738L369.777777778,958.405006738L" fill="none" stroke="black" stroke-width="3" stroke-linecap="round"/>
  <path d="M426.666666667,952.405006738L426.666666667,955.405006738L426.666666667,958.405006738L" fill="none" stroke="black" stroke-width="3" stroke-linecap="round"/>
  <path d="M483.555555556,952.405006738L483.555555556,955.405006738L483.555555556,958.405006738L" fill="none" stroke="black" stroke-width="3" stroke-linecap="round"/>
  <path d="M540.444444444,952.405006738L540.444444444,955.405006738L540.444444444,958.405006738L" fill="none" stroke="black" stroke-width="3" stroke-linecap="round"/>
  <path d="M597.333333333,952.405006738L597.333333333,955.405006738L597.333333333,958.405006738L" fill="none" stroke="black" stroke-width="3" stroke-linecap="round"/>
  <path d="M654.222222222,952.405006738L654.222222222,955.405006738L654.222222222,958.405006738L" fill="none" stroke="black" stroke-width="3" stroke-linecap="round"/>
  <path d="M711.111111111,952.405006738L711.111111111,955.405006738L711.111111111,958.405006738L" fill="none" stroke="black" stroke-width="3" stroke-linecap="round"/>
  <path d="M766.5,952.806930526L768.0,955.405006738L769.5,958.003082949L" fill="none" stroke="black" stroke-width="3" stroke-linecap="round"/>
  <path d="M793.846368233,904.637783767L796.444444445,906.137783767L799.042520656,907.637783767L" fill="none" stroke="black" stroke-width="3" stroke-linecap="round"/>
  <path d="M822.290812678,855.370560796L824.888888889,856.870560796L827.486965101,858.370560796L" fill="none" stroke="black" stroke-width="3" stroke-linecap="round"/>
  <path d="M850.735257122,806.103337825L853.333333334,807.603337825L855.931409545,809.103337825L" fill="none" stroke="black" stroke-width="3" stroke-linecap="round"/>
  <path d="M879.179701567,756.836114854L881.777777778,758.336114854L884.375853989,759.836114854L" fill="none" stroke="black" stroke-width="3" stroke-linecap="round"/>
  <path d="M907.624146011,707.568891884L910.222222223,709.068891884L912.820298434,710.568891884L" fill="none" stroke="black" stroke-width="3" stroke-linecap="round"/>
  <path d="M936.068590456,658.301668913L938.666666667,659.801668913L941.264742878,661.301668913L" fill="none" stroke="black" stroke-width="3" stroke-linecap="round"/>
  <path d="M964.5130349,609.034445942L967.111111111,610.534445942L969.709187323,612.034445942L" fill="none" stroke="black" stroke-width="3" stroke-linecap="round"/>
  <path d="M992.957479345,559.767222971L995.555555556,561.267222971L998.153631767,562.767222971L" fill="none" stroke="black" stroke-width="3" stroke-linecap="round"/>
  <path d="M1021.0,512.0L1024.0,512.0L1027.0,512.0L" fill="none" stroke="black" stroke-width="3" stroke-linecap="round"/>
  <path d="M992.957479345,464.232777029L995.555555556,462.732777029L998.153631767,461.232777029L" fill="none" stroke="black" stroke-width="3" stroke-linecap="round"/>
  <path d="M964.5130349,414.965554058L967.111111111,413.465554058L969.709187323,411.965554058L" fill="none" stroke="black" stroke-width="3" stroke-linecap="round"/>
  <path d="M936.068590456,365.698331087L938.666666667,364.198331087L941.264742878,362.698331087L" fill="none" stroke="black" stroke-width="3" stroke-linecap="round"/>
  <path d="M907.624146011,316.431108116L910.222222223,314.931108116L912.820298434,313.431108116L" fill="none" stroke="black" stroke-width="3" stroke-linecap="round"/>
  <path d="M879.179701567,267.163885146L881.777777778,265.663885146L884.375853989,264.163885146L" fill="none" stroke="black" stroke-width="3" stroke-linecap="round"/>
  <path d="M850.735257122,217.896662175L853.333333334,216.396662175L855.931409545,214.896662175L" fill="none" stroke="black" stroke-width="3" stroke-linecap="round"/>
  <path d="M822.290812678,168.629439204L824.888888889,167.129439204L827.486965101,165.629439204L" fill="none" stroke="black" stroke-width="3" stroke-linecap="round"/>
  <path d="M793.846368233,119.362216233L796.444444445,117.862216233L799.042520656,116.362216233L" fill="none" stroke="black" stroke-width="3" stroke-linecap="round"/>
  <path d="M766.5,71.193069473L768.0,68.594993262L769.5,65.996917051L" fill="none" stroke="black" stroke-width="3" stroke-linecap="round"/>
  <path d="M711.111111111,71.594993262L711.111111111,68.594993262L711.111111111,65.594993262L" fill="none" stroke="black" stroke-width="3" stroke-linecap="round"/>
  <path d="M654.222222222,71.594993262L654.222222222,68.594993262L654.222222222,65.594993262L" fill="none" stroke="black" stroke-width="3" stroke-linecap="round"/>
  <path d="M597.333333333,71.594993262L597.333333333,68.594993262L597.333333333,65.594993262L" fill="none" stroke="black" stroke-width="3" stroke-linecap="round"/>
  <path d="M540.444444444,71.594993262L540.444444444,68.594993262L540.444444444,65.594993262L" fill="none" stroke="black" stroke-width="3" stroke-linecap="round"/>
  <path d="M483.555555556,71.594993262L483.555555556,68.594993262L483.555555556,65.594993262L" fill="none" stroke="black" stroke-width="3" stroke-linecap="round"/>
  <path d="M426.666666667,71.594993262L426.666666667,68.594993262L426.666666667,65.594993262L" fill="none" stroke="black" stroke-width="3" stroke-linecap="round"/>
  <path d="M369.777777778,71.594993262L369.777777778,68.594993262L369.777777778,65.594993262L" fill="none" stroke="black" stroke-width="3" stroke-linecap="round"/>
  <path d="M312.888888889,71.594993262L312.888888889,68.594993262L312.888888889,65.594993262L" fill="none" stroke="black" stroke-width="3" stroke-linecap="round"/>
  <path d="M257.5,71.193069474L256.0,68.594993262L254.5,65.996917051L" fill="none" stroke="black" stroke-width="3" stroke-linecap="round"/>
  <path d="M230.153631767,119.362216233L227.555555555,117.862216233L224.957479344,116.362216233L" fill="none" stroke="black" stroke-width="3" stroke-linecap="round"/>
  <path d="M201.709187322,168.629439204L199.111111111,167.129439204L196.513034899,165.629439204L" fill="none" stroke="black" stroke-width="3" stroke-linecap="round"/>
  <path d="M173.264742878,217.896662175L170.666666666,216.396662175L168.068590455,214.896662175L" fill="none" stroke="black" stroke-width="3" stroke-linecap="round"/>
  <path d="M144.820298433,267.163885146L142.222222222,265.663885146L139.624146011,264.163885146L" fill="none" stroke="black" stroke-width="3" stroke-linecap="round"/>
  <path d="M116.375853989,316.431108116L113.777777777,314.931108116L111.179701566,313.431108116L" fill="none" stroke="black" stroke-width="3" stroke-linecap="round"/>
  <path d="M87.931409544,365.698331087L85.333333333,364.198331087L82.735257122,362.698331087L" fill="none" stroke="black" stroke-width="3" stroke-linecap="round"/>
  <path d="M59.4869651,414.965554058L56.888888889,413.465554058L54.290812677,411.965554058L" fill="none" stroke="black" stroke-width="3" stroke-linecap="round"/>
  <path d="M31.042520655,464.232777029L28.444444444,462.732777029L25.846368233,461.232777029L" fill="none" stroke="black" stroke-width="3" stroke-linecap="round"/>
  <path d="M3.0,512.0L-0.0,512.0L-3.0,512.0L" fill="none" stroke="black" stroke-width="3" stroke-linecap="round"/>
  <path d="M31.042520655,559.767222971L28.444444444,561.267222971L25.846368233,562.767222971L" fill="none" stroke="black" stroke-width="3" stroke-linecap="round"/>
  <path d="M59.4869651,609.034445942L56.888888889,610.534445942L54.290812677,612.034445942L" fill="none" stroke="black" stroke-width="3" stroke-linecap="round"/>
  <path d="M87.931409544,658.301668913L85.333333333,659.801668913L82.735257122,661.301668913L" fill="none" stroke="black" stroke-width="3" stroke-linecap="round"/>
  <path d="M116.375853989,707.568891884L113.777777777,709.068891884L111.179701566,710.568891884L" fill="none" stroke="black" stroke-width="3" stroke-linecap="round"/>
  <path d="M144.820298433,756.836114854L142.222222222,758.336114854L139.624146011,759.836114854L" fill="none" stroke="black" stroke-width="3" stroke-linecap="round"/>
  <path d="M173.264742878,806.103337825L170.666666666,807.603337825L168.068590455,809.103337825L" fill="none" stroke="black" stroke-width="3" stroke-linecap="round"/>
  <path d="M201.709187322,855.370560796L199.111111111,856.870560796L196.513034899,858.370560796L" fill="none" stroke="black" stroke-width="3" stroke-linecap="round"/>
  <path d="M230.153631767,904.637783767L227.555555555,906.137783767L224.957479344,907.637783767L" fill="none" stroke="black" stroke-width="3" stroke-linecap="round"/>
</svg>