<?xml version="1.0" encoding="UTF-8"?>
<svg width="1024" height="1024" viewBox="0 0 1024 1024" xmlns="http://www.w3.org/2000/svg">
   <style>
      :root {
         --color-base: #D1A1A8;
         --color-primary: #7C6C63;
         --color-secondary: #968F8A;
      }
      .bg { fill: var(--color-base); }
      .stroke-primary { fill: none; stroke: var(--color-primary); stroke-width: 48; }
      .stroke-secondary { fill: none; stroke: var(--color-secondary); stroke-width: 48; }
      .fill-primary { fill: var(--color-primary); }
      .fill-secondary { fill: var(--color-secondary); }
   </style>
   <rect class="bg" width="1024" height="1024"/>
   <path class="fill-primary" d="M 621.33203,159.64453 573.33398,159.64648 C 573.33386,260.72843 632.16167,329.57577 706.85742,349.75 658.31261,381.72583 626.39908,418.07586 606.2793,447.64062 561.58798,423.90099 450.66613,346.19114 450.66602,159.64648 H 402.66797 C 402.66808,361.10569 520.77643,456.23658 582.25,489.17383 551.95329,551.79528 512.16391,698.23371 630.65625,861.32422 L 669.49023,833.11133 C 463.70433,549.87166 723.72331,378.7169 828.1543,344.78516 L 813.32031,299.13477 C 707.94692,333.37251 621.33189,270.44145 621.33203,159.64453 Z"/>
   <path class="fill-secondary" d="M 631.5293,415.01953 C 642.62287,402.34519 654.78436,390.30869 667.97266,378.99805 545.91027,329.06789 536.00001,200.18554 536,159.64648 H 488 C 488.00004,307.00391 571.41915,384.80447 631.5293,415.01953 Z"/>
   <path class="stroke-primary" d="M 203.261 321.96 C 444.82953 400.45022 523.22542 641.72748 373.928 847.218"/>
   <path class="stroke-secondary" d="M 176.892 403.117 C 358.06815 461.98463 416.86495 642.94234 304.892 797.06"/>
   <path class="stroke-secondary" d="M 176.892 403.117 C 358.06815 461.98463 416.86495 642.94234 304.892 797.06" transform="rotate(216 512 512)" />
   <path class="stroke-primary" d="M 150.523 484.274 C 271.30713 523.51930 310.50485 644.15793 235.856 746.903"/>
   <path class="stroke-primary" d="M 150.523 484.274 C 271.30713 523.51930 310.50485 644.15793 235.856 746.903" transform="rotate(216 512 512)" />
</svg>
