<?xml version="1.0" encoding="UTF-8"?>
<svg width="1024" height="1024" viewBox="0 0 1024 1024" xmlns="http://www.w3.org/2000/svg">
  <defs>
    <polygon id="hex" points="256,159.64672 768,159.64672 926.216192,646.587392 512,947.5328 97.783808,646.587392" />
    <clipPath id="hex-clip">
      <use href="#hex" />
    </clipPath>
    <filter id="edge-blur">
      <feGaussianBlur stdDeviation="6" />
    </filter>
    <filter id="soft-stitch">
      <feGaussianBlur stdDeviation="0.8" />
    </filter>
  </defs>
  <g clip-path="url(#hex-clip)">
    <use href="#hex" fill="transparent" />
    <use href="#hex" fill="none" stroke="black" stroke-width="6" filter="url(#edge-blur)" />
    <g stroke="black" stroke-width="5" stroke-linecap="round" filter="url(#soft-stitch)">
      <line x1="256.000" y1="159.647" x2="260.110" y2="165.317" />
      <line x1="768.000" y1="159.647" x2="763.890" y2="165.317" />
      <line x1="926.216" y1="646.587" x2="919.556" y2="644.417" />
      <line x1="512.000" y1="947.533" x2="512.000" y2="940.533" />
      <line x1="97.784"  y1="646.587" x2="104.444" y2="644.417" />
      <line x1="298.667" y1="159.647" x2="298.667" y2="166.647" />
      <line x1="341.333" y1="159.647" x2="341.333" y2="166.647" />
      <line x1="384.000" y1="159.647" x2="384.000" y2="166.647" />
      <line x1="426.667" y1="159.647" x2="426.667" y2="166.647" />
      <line x1="469.333" y1="159.647" x2="469.333" y2="166.647" />
      <line x1="512.000" y1="159.647" x2="512.000" y2="166.647" />
      <line x1="554.667" y1="159.647" x2="554.667" y2="166.647" />
      <line x1="597.333" y1="159.647" x2="597.333" y2="166.647" />
      <line x1="640.000" y1="159.647" x2="640.000" y2="166.647" />
      <line x1="682.667" y1="159.647" x2="682.667" y2="166.647" />
      <line x1="725.333" y1="159.647" x2="725.333" y2="166.647" />
      <line x1="781.185" y1="200.225" x2="774.525" y2="202.385" />
      <line x1="794.369" y1="240.804" x2="787.709" y2="242.964" />
      <line x1="807.554" y1="281.382" x2="800.894" y2="283.542" />
      <line x1="820.739" y1="321.960" x2="814.079" y2="324.120" />
      <line x1="833.923" y1="362.539" x2="827.263" y2="364.699" />
      <line x1="847.108" y1="403.117" x2="840.448" y2="405.277" />
      <line x1="860.293" y1="443.695" x2="853.633" y2="445.855" />
      <line x1="873.477" y1="484.274" x2="866.817" y2="486.434" />
      <line x1="886.662" y1="524.852" x2="880.002" y2="527.012" />
      <line x1="899.847" y1="565.430" x2="893.187" y2="567.590" />
      <line x1="913.031" y1="606.009" x2="906.371" y2="608.169" />
      <line x1="891.698" y1="671.666" x2="887.588" y2="666.006" />
      <line x1="857.180" y1="696.745" x2="853.070" y2="691.085" />
      <line x1="822.662" y1="721.824" x2="818.552" y2="716.164" />
      <line x1="788.144" y1="746.903" x2="784.034" y2="741.243" />
      <line x1="753.626" y1="771.981" x2="749.516" y2="766.321" />
      <line x1="719.108" y1="797.060" x2="714.998" y2="791.400" />
      <line x1="684.590" y1="822.139" x2="680.480" y2="816.479" />
      <line x1="650.072" y1="847.218" x2="645.962" y2="841.558" />
      <line x1="615.554" y1="872.296" x2="611.444" y2="866.636" />
      <line x1="581.036" y1="897.375" x2="576.926" y2="891.715" />
      <line x1="546.518" y1="922.454" x2="542.408" y2="916.794" />
      <line x1="477.482" y1="922.454" x2="481.592" y2="916.794" />
      <line x1="442.964" y1="897.375" x2="447.074" y2="891.715" />
      <line x1="408.446" y1="872.296" x2="412.556" y2="866.636" />
      <line x1="373.928" y1="847.218" x2="378.038" y2="841.558" />
      <line x1="339.410" y1="822.139" x2="343.520" y2="816.479" />
      <line x1="304.892" y1="797.060" x2="309.002" y2="791.400" />
      <line x1="270.374" y1="771.981" x2="274.484" y2="766.321" />
      <line x1="235.856" y1="746.903" x2="239.966" y2="741.243" />
      <line x1="201.338" y1="721.824" x2="205.448" y2="716.164" />
      <line x1="166.820" y1="696.745" x2="170.930" y2="691.085" />
      <line x1="132.302" y1="671.666" x2="136.412" y2="666.006" />
      <line x1="110.969" y1="606.009" x2="117.629" y2="608.169" />
      <line x1="124.153" y1="565.430" x2="130.813" y2="567.590" />
      <line x1="137.338" y1="524.852" x2="143.998" y2="527.012" />
      <line x1="150.523" y1="484.274" x2="157.183" y2="486.434" />
      <line x1="163.707" y1="443.695" x2="170.367" y2="445.855" />
      <line x1="176.892" y1="403.117" x2="183.552" y2="405.277" />
      <line x1="190.077" y1="362.539" x2="196.737" y2="364.699" />
      <line x1="203.261" y1="321.960" x2="209.921" y2="324.120" />
      <line x1="216.446" y1="281.382" x2="223.106" y2="283.542" />
      <line x1="229.631" y1="240.804" x2="236.291" y2="242.964" />
      <line x1="242.815" y1="200.225" x2="249.475" y2="202.385" />
    </g>
  </g>
</svg>
