<?xml version="1.0" encoding="UTF-8"?>
<svg width="1024" height="1024" viewBox="0 0 1024 1024" xmlns="http://www.w3.org/2000/svg">
  <path d="M 256 159.64672 L 285.3893 200.09752" stroke="#4A4A4A" stroke-width="8px" fill="none"/>
  <path d="M 298.667008 159.64672 L 298.667008 209.64672" stroke="#4A4A4A" stroke-width="8px" fill="none"/>
  <path d="M 341.333 159.64672 L 341.333 209.64672" stroke="#4A4A4A" stroke-width="8px" fill="none"/>
  <path d="M 384 159.64672 L 384 209.64672" stroke="#4A4A4A" stroke-width="8px" fill="none"/>
  <path d="M 426.667008 159.64672 L 426.667008 209.64672" stroke="#4A4A4A" stroke-width="8px" fill="none"/>
  <path d="M 469.333 159.64672 L 469.333 209.64672" stroke="#4A4A4A" stroke-width="8px" fill="none"/>
  <path d="M 512 159.64672 L 512 209.64672" stroke="#4A4A4A" stroke-width="8px" fill="none"/>
  <path d="M 554.667008 159.64672 L 554.667008 209.64672" stroke="#4A4A4A" stroke-width="8px" fill="none"/>
  <path d="M 597.333 159.64672 L 597.333 209.64672" stroke="#4A4A4A" stroke-width="8px" fill="none"/>
  <path d="M 640 159.64672 L 640 209.64672" stroke="#4A4A4A" stroke-width="8px" fill="none"/>
  <path d="M 682.667008 159.64672 L 682.667008 209.64672" stroke="#4A4A4A" stroke-width="8px" fill="none"/>
  <path d="M 725.333 159.64672 L 725.333 209.64672" stroke="#4A4A4A" stroke-width="8px" fill="none"/>
  <path d="M 768 159.64672 L 738.6107 200.09752" stroke="#4A4A4A" stroke-width="8px" fill="none"/>
  <path d="M 781.185024 200.224768 L 733.632324 215.675968" stroke="#4A4A4A" stroke-width="8px" fill="none"/>
  <path d="M 794.369024 240.80384 L 746.816324 256.25504" stroke="#4A4A4A" stroke-width="8px" fill="none"/>
  <path d="M 807.554048 281.381888 L 760.001348 296.833088" stroke="#4A4A4A" stroke-width="8px" fill="none"/>
  <path d="M 820.739072 321.959936 L 773.186372 337.411136" stroke="#4A4A4A" stroke-width="8px" fill="none"/>
  <path d="M 833.923072 362.539008 L 786.370372 377.990208" stroke="#4A4A4A" stroke-width="8px" fill="none"/>
  <path d="M 847.108096 403.117056 L 799.555396 418.568256" stroke="#4A4A4A" stroke-width="8px" fill="none"/>
  <path d="M 860.29312 443.695104 L 812.74042 459.146304" stroke="#4A4A4A" stroke-width="8px" fill="none"/>
  <path d="M 873.47712 484.274176 L 825.92442 499.725376" stroke="#4A4A4A" stroke-width="8px" fill="none"/>
  <path d="M 886.662144 524.852224 L 839.109444 540.303424" stroke="#4A4A4A" stroke-width="8px" fill="none"/>
  <path d="M 899.847168 565.430272 L 852.294468 580.881472" stroke="#4A4A4A" stroke-width="8px" fill="none"/>
  <path d="M 913.031168 606.009344 L 865.478468 621.460544" stroke="#4A4A4A" stroke-width="8px" fill="none"/>
  <path d="M 926.216192 646.587392 L 878.662592 631.136892" stroke="#4A4A4A" stroke-width="8px" fill="none"/>
  <path d="M 891.698176 671.666176 L 862.308876 631.215376" stroke="#4A4A4A" stroke-width="8px" fill="none"/>
  <path d="M 857.18016 696.74496 L 827.79086 656.29416" stroke="#4A4A4A" stroke-width="8px" fill="none"/>
  <path d="M 822.662144 721.823744 L 793.272844 681.372944" stroke="#4A4A4A" stroke-width="8px" fill="none"/>
  <path d="M 788.144128 746.902528 L 758.754828 706.451728" stroke="#4A4A4A" stroke-width="8px" fill="none"/>
  <path d="M 753.626112 771.981312 L 724.236812 731.530512" stroke="#4A4A4A" stroke-width="8px" fill="none"/>
  <path d="M 719.108096 797.060096 L 689.718796 756.609296" stroke="#4A4A4A" stroke-width="8px" fill="none"/>
  <path d="M 684.59008 822.13888 L 655.20078 781.68808" stroke="#4A4A4A" stroke-width="8px" fill="none"/>
  <path d="M 650.072064 847.217664 L 620.682764 806.766864" stroke="#4A4A4A" stroke-width="8px" fill="none"/>
  <path d="M 615.554048 872.296448 L 586.164748 831.845648" stroke="#4A4A4A" stroke-width="8px" fill="none"/>
  <path d="M 581.036032 897.375232 L 551.646732 856.924432" stroke="#4A4A4A" stroke-width="8px" fill="none"/>
  <path d="M 546.518016 922.454016 L 517.128716 882.003216" stroke="#4A4A4A" stroke-width="8px" fill="none"/>
  <path d="M 512 947.5328 L 512 897.5328" stroke="#4A4A4A" stroke-width="8px" fill="none"/>
  <path d="M 477.481984 922.454016 L 506.871284 882.003216" stroke="#4A4A4A" stroke-width="8px" fill="none"/>
  <path d="M 442.963968 897.375232 L 472.353268 856.924432" stroke="#4A4A4A" stroke-width="8px" fill="none"/>
  <path d="M 408.445952 872.296448 L 437.835252 831.845648" stroke="#4A4A4A" stroke-width="8px" fill="none"/>
  <path d="M 373.927936 847.217664 L 403.317236 806.766864" stroke="#4A4A4A" stroke-width="8px" fill="none"/>
  <path d="M 339.40992 822.13888 L 368.79922 781.68808" stroke="#4A4A4A" stroke-width="8px" fill="none"/>
  <path d="M 304.891904 797.060096 L 334.281204 756.609296" stroke="#4A4A4A" stroke-width="8px" fill="none"/>
  <path d="M 270.373888 771.981312 L 299.763188 731.530512" stroke="#4A4A4A" stroke-width="8px" fill="none"/>
  <path d="M 235.855872 746.902528 L 265.245172 706.451728" stroke="#4A4A4A" stroke-width="8px" fill="none"/>
  <path d="M 201.337856 721.823744 L 230.727156 681.372944" stroke="#4A4A4A" stroke-width="8px" fill="none"/>
  <path d="M 166.81984 696.74496 L 196.20914 656.29416" stroke="#4A4A4A" stroke-width="8px" fill="none"/>
  <path d="M 132.301824 671.666176 L 161.691124 631.215376" stroke="#4A4A4A" stroke-width="8px" fill="none"/>
  <path d="M 97.783808 646.587392 L 145.337408 631.136892" stroke="#4A4A4A" stroke-width="8px" fill="none"/>
  <path d="M 110.968832 606.009344 L 158.521532 621.460544" stroke="#4A4A4A" stroke-width="8px" fill="none"/>
  <path d="M 124.152832 565.430272 L 171.705532 580.881472" stroke="#4A4A4A" stroke-width="8px" fill="none"/>
  <path d="M 137.337856 524.852224 L 184.890556 540.303424" stroke="#4A4A4A" stroke-width="8px" fill="none"/>
  <path d="M 150.52288 484.274176 L 198.07558 499.725376" stroke="#4A4A4A" stroke-width="8px" fill="none"/>
  <path d="M 163.70688 443.695104 L 211.25958 459.146304" stroke="#4A4A4A" stroke-width="8px" fill="none"/>
  <path d="M 176.891904 403.117056 L 224.444604 418.568256" stroke="#4A4A4A" stroke-width="8px" fill="none"/>
  <path d="M 190.076928 362.539008 L 237.629628 377.990208" stroke="#4A4A4A" stroke-width="8px" fill="none"/>
  <path d="M 203.260928 321.959936 L 250.813628 337.411136" stroke="#4A4A4A" stroke-width="8px" fill="none"/>
  <path d="M 216.445952 281.381888 L 263.998652 296.833088" stroke="#4A4A4A" stroke-width="8px" fill="none"/>
  <path d="M 229.630976 240.80384 L 277.183676 256.25504" stroke="#4A4A4A" stroke-width="8px" fill="none"/>
  <path d="M 242.814976 200.224768 L 290.367676 215.675968" stroke="#4A4A4A" stroke-width="8px" fill="none"/>
</svg>

