<svg height="1024" width="1024" xmlns="http://www.w3.org/2000/svg">
  <circle r="5" cx="512.0" cy="512.0" fill="black"/>
  <circle r="5" cx="597.333333333" cy="629.451257214" fill="black"/>
  <circle r="5" cx="426.666666667" cy="629.451257214" fill="black"/>
  <circle r="5" cx="512.0" cy="746.902514427" fill="black"/>
  <circle r="5" cx="341.333333333" cy="746.902514427" fill="black"/>
  <circle r="5" cx="682.666666667" cy="746.902514427" fill="black"/>
  <circle r="5" cx="426.666666667" cy="864.353771641" fill="black"/>
  <circle r="5" cx="256.0" cy="864.353771641" fill="black"/>
  <circle r="5" cx="597.333333333" cy="864.353771641" fill="black"/>
  <circle r="5" cx="768.0" cy="864.353771641" fill="black"/>
  <circle r="5" cx="650.072233707" cy="467.137611766" fill="black"/>
  <circle r="5" cx="735.40556704" cy="584.588868979" fill="black"/>
  <circle r="5" cx="788.144467413" cy="422.275223532" fill="black"/>
  <circle r="5" cx="820.738900373" cy="702.040126193" fill="black"/>
  <circle r="5" cx="873.477800747" cy="539.726480745" fill="black"/>
  <circle r="5" cx="926.21670112" cy="377.412835298" fill="black"/>
  <circle r="5" cx="512.0" cy="366.822262041" fill="black"/>
  <circle r="5" cx="650.072233707" cy="321.959873807" fill="black"/>
  <circle r="5" cx="512.0" cy="221.644524083" fill="black"/>
  <circle r="5" cx="788.144467413" cy="277.097485573" fill="black"/>
  <circle r="5" cx="650.072233707" cy="176.782135848" fill="black"/>
  <circle r="5" cx="512.0" cy="76.466786124" fill="black"/>
  <circle r="5" cx="373.927766293" cy="467.137611766" fill="black"/>
  <circle r="5" cx="373.927766293" cy="321.959873807" fill="black"/>
  <circle r="5" cx="235.855532587" cy="422.275223532" fill="black"/>
  <circle r="5" cx="373.927766293" cy="176.782135848" fill="black"/>
  <circle r="5" cx="235.855532587" cy="277.097485573" fill="black"/>
  <circle r="5" cx="97.78329888" cy="377.412835298" fill="black"/>
  <circle r="5" cx="288.59443296" cy="584.588868979" fill="black"/>
  <circle r="5" cx="150.522199253" cy="539.726480745" fill="black"/>
  <circle r="5" cx="203.261099627" cy="702.040126193" fill="black"/>
</svg>