<svg height="1024" width="1024" xmlns="http://www.w3.org/2000/svg">
  <path d="M257.763355757,861.926720658L256.0,864.353771641L254.236644243,866.780822624L" fill="none" stroke="black" stroke-width="3" stroke-linecap="round"/>
  <path d="M312.888888889,861.353771641L312.888888889,864.353771641L312.888888889,867.353771641L" fill="none" stroke="black" stroke-width="3" stroke-linecap="round"/>
  <path d="M369.777777778,861.353771641L369.777777778,864.353771641L369.777777778,867.353771641L" fill="none" stroke="black" stroke-width="3" stroke-linecap="round"/>
  <path d="M426.666666667,861.353771641L426.666666667,864.353771641L426.666666667,867.353771641L" fill="none" stroke="black" stroke-width="3" stroke-linecap="round"/>
  <path d="M483.555555556,861.353771641L483.555555556,864.353771641L483.555555556,867.353771641L" fill="none" stroke="black" stroke-width="3" stroke-linecap="round"/>
  <path d="M540.444444444,861.353771641L540.444444444,864.353771641L540.444444444,867.353771641L" fill="none" stroke="black" stroke-width="3" stroke-linecap="round"/>
  <path d="M597.333333333,861.353771641L597.333333333,864.353771641L597.333333333,867.353771641L" fill="none" stroke="black" stroke-width="3" stroke-linecap="round"/>
  <path d="M654.222222222,861.353771641L654.222222222,864.353771641L654.222222222,867.353771641L" fill="none" stroke="black" stroke-width="3" stroke-linecap="round"/>
  <path d="M711.111111111,861.353771641L711.111111111,864.353771641L711.111111111,867.353771641L" fill="none" stroke="black" stroke-width="3" stroke-linecap="round"/>
  <path d="M766.236644243,861.926720658L768.0,864.353771641L769.763355757,866.780822624L" fill="none" stroke="black" stroke-width="3" stroke-linecap="round"/>
  <path d="M782.726463909,809.322172175L785.579633458,810.249223158L788.432803007,811.176274141L" fill="none" stroke="black" stroke-width="3" stroke-linecap="round"/>
  <path d="M800.306097367,755.217623692L803.159266916,756.144674676L806.012436465,757.071725659L" fill="none" stroke="black" stroke-width="3" stroke-linecap="round"/>
  <path d="M817.885730825,701.11307521L820.738900374,702.040126193L823.592069923,702.967177176L" fill="none" stroke="black" stroke-width="3" stroke-linecap="round"/>
  <path d="M835.465364283,647.008526727L838.318533831,647.93557771L841.17170338,648.862628694L" fill="none" stroke="black" stroke-width="3" stroke-linecap="round"/>
  <path d="M853.04499774,592.903978245L855.898167289,593.831029228L858.751336838,594.758080211L" fill="none" stroke="black" stroke-width="3" stroke-linecap="round"/>
  <path d="M870.624631198,538.799429762L873.477800747,539.726480745L876.330970296,540.653531728L" fill="none" stroke="black" stroke-width="3" stroke-linecap="round"/>
  <path d="M888.204264656,484.69488128L891.057434205,485.621932263L893.910603754,486.548983246L" fill="none" stroke="black" stroke-width="3" stroke-linecap="round"/>
  <path d="M905.783898114,430.590332797L908.637067663,431.51738378L911.490237211,432.444434763L" fill="none" stroke="black" stroke-width="3" stroke-linecap="round"/>
  <path d="M923.363531571,378.33988628L926.21670112,377.412835297L929.069870669,376.485784314L" fill="none" stroke="black" stroke-width="3" stroke-linecap="round"/>
  <path d="M878.429267461,346.401436372L880.192623218,343.974385389L881.955978975,341.547334406L" fill="none" stroke="black" stroke-width="3" stroke-linecap="round"/>
  <path d="M832.405189559,312.962986464L834.168545316,310.535935481L835.931901073,308.108884498L" fill="none" stroke="black" stroke-width="3" stroke-linecap="round"/>
  <path d="M786.381111657,279.524536556L788.144467414,277.097485573L789.90782317,274.670434589L" fill="none" stroke="black" stroke-width="3" stroke-linecap="round"/>
  <path d="M740.357033754,246.086086648L742.120389511,243.659035664L743.883745268,241.231984681L" fill="none" stroke="black" stroke-width="3" stroke-linecap="round"/>
  <path d="M694.332955852,212.647636739L696.096311609,210.220585756L697.859667366,207.793534773L" fill="none" stroke="black" stroke-width="3" stroke-linecap="round"/>
  <path d="M648.30887795,179.209186831L650.072233707,176.782135848L651.835589464,174.355084865L" fill="none" stroke="black" stroke-width="3" stroke-linecap="round"/>
  <path d="M602.284800048,145.770736923L604.048155805,143.34368594L605.811511562,140.916634957L" fill="none" stroke="black" stroke-width="3" stroke-linecap="round"/>
  <path d="M556.260722146,112.332287015L558.024077902,109.905236032L559.787433659,107.478185049L" fill="none" stroke="black" stroke-width="3" stroke-linecap="round"/>
  <path d="M512.0,79.466786123L512.0,76.466786123L512.0,73.466786123L" fill="none" stroke="black" stroke-width="3" stroke-linecap="round"/>
  <path d="M467.739277854,112.332287015L465.975922098,109.905236032L464.212566341,107.478185049L" fill="none" stroke="black" stroke-width="3" stroke-linecap="round"/>
  <path d="M421.715199952,145.770736923L419.951844195,143.34368594L418.188488438,140.916634957L" fill="none" stroke="black" stroke-width="3" stroke-linecap="round"/>
  <path d="M375.69112205,179.209186831L373.927766293,176.782135848L372.164410536,174.355084865L" fill="none" stroke="black" stroke-width="3" stroke-linecap="round"/>
  <path d="M329.667044148,212.647636739L327.903688391,210.220585756L326.140332634,207.793534773L" fill="none" stroke="black" stroke-width="3" stroke-linecap="round"/>
  <path d="M283.642966246,246.086086648L281.879610489,243.659035664L280.116254732,241.231984681L" fill="none" stroke="black" stroke-width="3" stroke-linecap="round"/>
  <path d="M237.618888343,279.524536556L235.855532586,277.097485573L234.09217683,274.670434589L" fill="none" stroke="black" stroke-width="3" stroke-linecap="round"/>
  <path d="M191.594810441,312.962986464L189.831454684,310.535935481L188.068098927,308.108884498L" fill="none" stroke="black" stroke-width="3" stroke-linecap="round"/>
  <path d="M145.570732539,346.401436372L143.807376782,343.974385389L142.044021025,341.547334406L" fill="none" stroke="black" stroke-width="3" stroke-linecap="round"/>
  <path d="M100.636468429,378.339886281L97.78329888,377.412835298L94.930129331,376.485784314L" fill="none" stroke="black" stroke-width="3" stroke-linecap="round"/>
  <path d="M118.216101886,430.590332797L115.362932337,431.51738378L112.509762789,432.444434763L" fill="none" stroke="black" stroke-width="3" stroke-linecap="round"/>
  <path d="M135.795735344,484.69488128L132.942565795,485.621932263L130.089396246,486.548983246L" fill="none" stroke="black" stroke-width="3" stroke-linecap="round"/>
  <path d="M153.375368802,538.799429762L150.522199253,539.726480745L147.669029704,540.653531728L" fill="none" stroke="black" stroke-width="3" stroke-linecap="round"/>
  <path d="M170.95500226,592.903978245L168.101832711,593.831029228L165.248663162,594.758080211L" fill="none" stroke="black" stroke-width="3" stroke-linecap="round"/>
  <path d="M188.534635717,647.008526727L185.681466169,647.93557771L182.82829662,648.862628694L" fill="none" stroke="black" stroke-width="3" stroke-linecap="round"/>
  <path d="M206.114269175,701.11307521L203.261099626,702.040126193L200.407930077,702.967177176L" fill="none" stroke="black" stroke-width="3" stroke-linecap="round"/>
  <path d="M223.693902633,755.217623692L220.840733084,756.144674676L217.987563535,757.071725659L" fill="none" stroke="black" stroke-width="3" stroke-linecap="round"/>
  <path d="M241.273536091,809.322172175L238.420366542,810.249223158L235.567196993,811.176274141L" fill="none" stroke="black" stroke-width="3" stroke-linecap="round"/>
</svg>