<svg height="1024" width="1024" xmlns="http://www.w3.org/2000/svg">
  <rect width="1024" height="1024" fill="grey"/>
  <path id="1h" d="M256.0,955.405006738L768.0,955.405006738L768.0,955.405006738L1024.0,512.0L1024.0,512.0L768.0,68.594993262L768.0,68.594993262L256.0,68.594993262L256.0,68.594993262L-0.0,512.0L-0.0,512.0L256.0,955.405006738Z" fill="none" stroke="orange" stroke-width="80"/>
  <path id="2h" d="M256.0,955.405006738L512.0,955.405006738L768.0,955.405006738L768.0,955.405006738L896.0,733.702503369L1024.0,512.0L1024.0,512.0L896.0,290.297496631L768.0,68.594993262L768.0,68.594993262L512.0,68.594993262L256.0,68.594993262L256.0,68.594993262L128.0,290.297496631L-0.0,512.0L-0.0,512.0L128.0,733.702503369L256.0,955.405006738Z" fill="none" stroke="lime" stroke-width="70"/>
  <path id="3h" d="M256.0,955.405006738L426.666666667,955.405006738L597.333333333,955.405006738L768.0,955.405006738L768.0,955.405006738L853.333333334,807.603337825L938.666666667,659.801668913L1024.0,512.0L1024.0,512.0L938.666666667,364.198331087L853.333333334,216.396662175L768.0,68.594993262L768.0,68.594993262L597.333333333,68.594993262L426.666666667,68.594993262L256.0,68.594993262L256.0,68.594993262L170.666666666,216.396662175L85.333333333,364.198331087L-0.0,512.0L-0.0,512.0L85.333333333,659.801668913L170.666666666,807.603337825L256.0,955.405006738Z" fill="none" stroke="cyan" stroke-width="60"/>
  <path id="4h" d="M256.0,955.405006738L384.0,955.405006738L512.0,955.405006738L640.0,955.405006738L768.0,955.405006738L768.0,955.405006738L832.0,844.553755053L896.0,733.702503369L960.0,622.851251685L1024.0,512.0L1024.0,512.0L960.0,401.148748315L896.0,290.297496631L832.0,179.446244947L768.0,68.594993262L768.0,68.594993262L640.0,68.594993262L512.0,68.594993262L384.0,68.594993262L256.0,68.594993262L256.0,68.594993262L192.0,179.446244947L128.0,290.297496631L64.0,401.148748315L-0.0,512.0L-0.0,512.0L64.0,622.851251685L128.0,733.702503369L192.0,844.553755053L256.0,955.405006738Z" fill="none" stroke="yellow" stroke-width="50"/>
  <path id="5h" d="M256.0,955.405006738L358.4,955.405006738L460.8,955.405006738L563.2,955.405006738L665.6,955.405006738L768.0,955.405006738L768.0,955.405006738L819.2,866.72400539L870.4,778.043004043L921.6,689.362002695L972.8,600.681001348L1024.0,512.0L1024.0,512.0L972.8,423.318998652L921.6,334.637997305L870.4,245.956995957L819.2,157.27599461L768.0,68.594993262L768.0,68.594993262L665.6,68.594993262L563.2,68.594993262L460.8,68.594993262L358.4,68.594993262L256.0,68.594993262L256.0,68.594993262L204.8,157.27599461L153.6,245.956995957L102.4,334.637997305L51.2,423.318998652L-0.0,512.0L-0.0,512.0L51.2,600.681001348L102.4,689.362002695L153.6,778.043004043L204.8,866.72400539L256.0,955.405006738Z" fill="none" stroke="magenta" stroke-width="40"/>
  <path id="6h" d="M256.0,955.405006738L341.333333333,955.405006738L426.666666667,955.405006738L512.0,955.405006738L597.333333333,955.405006738L682.666666667,955.405006738L768.0,955.405006738L768.0,955.405006738L810.666666667,881.504172282L853.333333334,807.603337825L896.0,733.702503369L938.666666667,659.801668913L981.333333334,585.900834456L1024.0,512.0L1024.0,512.0L981.333333334,438.099165544L938.666666667,364.198331087L896.0,290.297496631L853.333333334,216.396662175L810.666666667,142.495827718L768.0,68.594993262L768.0,68.594993262L682.666666667,68.594993262L597.333333333,68.594993262L512.0,68.594993262L426.666666667,68.594993262L341.333333333,68.594993262L256.0,68.594993262L256.0,68.594993262L213.333333333,142.495827718L170.666666666,216.396662175L128.0,290.297496631L85.333333333,364.198331087L42.666666666,438.099165544L-0.0,512.0L-0.0,512.0L42.666666666,585.900834456L85.333333333,659.801668913L128.0,733.702503369L170.666666666,807.603337825L213.333333333,881.504172282L256.0,955.405006738Z" fill="none" stroke="salmon" stroke-width="30"/>
  <path id="7h" d="M256.0,955.405006738L329.142857143,955.405006738L402.285714286,955.405006738L475.428571429,955.405006738L548.571428571,955.405006738L621.714285714,955.405006738L694.857142857,955.405006738L768.0,955.405006738L768.0,955.405006738L804.571428572,892.061434347L841.142857143,828.717861956L877.714285715,765.374289565L914.285714286,702.030717173L950.857142857,638.687144782L987.428571429,575.343572391L1024.0,512.0L1024.0,512.0L987.428571429,448.656427609L950.857142857,385.312855218L914.285714286,321.969282827L877.714285715,258.625710435L841.142857143,195.282138044L804.571428572,131.938565653L768.0,68.594993262L768.0,68.594993262L694.857142857,68.594993262L621.714285714,68.594993262L548.571428571,68.594993262L475.428571429,68.594993262L402.285714286,68.594993262L329.142857143,68.594993262L256.0,68.594993262L256.0,68.594993262L219.428571428,131.938565653L182.857142857,195.282138044L146.285714285,258.625710435L109.714285714,321.969282827L73.142857143,385.312855218L36.571428571,448.656427609L-0.0,512.0L-0.0,512.0L36.571428571,575.343572391L73.142857143,638.687144782L109.714285714,702.030717173L146.285714285,765.374289565L182.857142857,828.717861956L219.428571428,892.061434347L256.0,955.405006738Z" fill="none" stroke="darkslategray" stroke-width="20"/>
  <path id="8h" d="M256.0,955.405006738L320.0,955.405006738L384.0,955.405006738L448.0,955.405006738L512.0,955.405006738L576.0,955.405006738L640.0,955.405006738L704.0,955.405006738L768.0,955.405006738L768.0,955.405006738L800.0,899.979380896L832.0,844.553755053L864.0,789.128129211L896.0,733.702503369L928.0,678.276877527L960.0,622.851251685L992.0,567.425625842L1024.0,512.0L1024.0,512.0L992.0,456.574374158L960.0,401.148748315L928.0,345.723122473L896.0,290.297496631L864.0,234.871870789L832.0,179.446244947L800.0,124.020619104L768.0,68.594993262L768.0,68.594993262L704.0,68.594993262L640.0,68.594993262L576.0,68.594993262L512.0,68.594993262L448.0,68.594993262L384.0,68.594993262L320.0,68.594993262L256.0,68.594993262L256.0,68.594993262L224.0,124.020619104L192.0,179.446244947L160.0,234.871870789L128.0,290.297496631L96.0,345.723122473L64.0,401.148748315L32.0,456.574374158L-0.0,512.0L-0.0,512.0L32.0,567.425625842L64.0,622.851251685L96.0,678.276877527L128.0,733.702503369L160.0,789.128129211L192.0,844.553755053L224.0,899.979380896L256.0,955.405006738Z" fill="none" stroke="blue" stroke-width="10"/>
</svg>
