<svg height="1024" width="1024" xmlns="http://www.w3.org/2000/svg">
  <rect width="1024" height="1024" fill="grey"/>
  <path id="1p" d="M256.0,864.353771641L768.0,864.353771641L768.0,864.353771641L926.21670112,377.412835298L926.21670112,377.412835297L512.0,76.466786123L512.0,76.466786123L97.78329888,377.412835297L97.78329888,377.412835298L256.0,864.353771641Z" fill="none" stroke="orange" stroke-width="80"/>
  <path id="2p" d="M256.0,864.353771641L512.0,864.353771641L768.0,864.353771641L768.0,864.353771641L847.10835056,620.883303469L926.21670112,377.412835298L926.21670112,377.412835297L719.10835056,226.93981071L512.0,76.466786123L512.0,76.466786123L304.89164944,226.93981071L97.78329888,377.412835297L97.78329888,377.412835298L176.89164944,620.883303469L256.0,864.353771641Z" fill="none" stroke="lime" stroke-width="70"/>
  <path id="3p" d="M256.0,864.353771641L426.666666667,864.353771641L597.333333333,864.353771641L768.0,864.353771641L768.0,864.353771641L820.738900374,702.040126193L873.477800747,539.726480745L926.21670112,377.412835298L926.21670112,377.412835297L788.144467414,277.097485573L650.072233707,176.782135848L512.0,76.466786123L512.0,76.466786123L373.927766293,176.782135848L235.855532586,277.097485573L97.78329888,377.412835297L97.78329888,377.412835298L150.522199253,539.726480745L203.261099626,702.040126193L256.0,864.353771641Z" fill="none" stroke="cyan" stroke-width="60"/>
  <path id="4p" d="M256.0,864.353771641L384.0,864.353771641L512.0,864.353771641L640.0,864.353771641L768.0,864.353771641L768.0,864.353771641L807.55417528,742.618537555L847.10835056,620.883303469L886.66252584,499.148069383L926.21670112,377.412835298L926.21670112,377.412835297L822.66252584,302.176323004L719.10835056,226.93981071L615.55417528,151.703298417L512.0,76.466786123L512.0,76.466786123L408.44582472,151.703298417L304.89164944,226.93981071L201.33747416,302.176323004L97.78329888,377.412835297L97.78329888,377.412835298L137.33747416,499.148069383L176.89164944,620.883303469L216.44582472,742.618537555L256.0,864.353771641Z" fill="none" stroke="yellow" stroke-width="50"/>    
  <path id="5p" d="M256.0,864.353771641L358.4,864.353771641L460.8,864.353771641L563.2,864.353771641L665.6,864.353771641L768.0,864.353771641L768.0,864.353771641L799.643340224,766.965584372L831.286680448,669.577397103L862.930020672,572.189209835L894.573360896,474.801022566L926.21670112,377.412835298L926.21670112,377.412835297L843.373360896,317.223625462L760.530020672,257.034415628L677.686680448,196.845205793L594.843340224,136.655995958L512.0,76.466786123L512.0,76.466786123L429.156659776,136.655995958L346.313319552,196.845205793L263.469979328,257.034415628L180.626639104,317.223625462L97.78329888,377.412835297L97.78329888,377.412835298L129.426639104,474.801022566L161.069979328,572.189209835L192.713319552,669.577397103L224.356659776,766.965584372L256.0,864.353771641Z" fill="none" stroke="magenta" stroke-width="40"/>
  <path id="6p" d="M256.0,864.353771641L341.333333333,864.353771641L426.666666667,864.353771641L512.0,864.353771641L597.333333333,864.353771641L682.666666667,864.353771641L768.0,864.353771641L768.0,864.353771641L794.369450187,783.196948917L820.738900374,702.040126193L847.10835056,620.883303469L873.477800747,539.726480745L899.847250934,458.569658021L926.21670112,377.412835298L926.21670112,377.412835297L857.180584267,327.255160435L788.144467414,277.097485573L719.10835056,226.93981071L650.072233707,176.782135848L581.036116854,126.624460986L512.0,76.466786123L512.0,76.466786123L442.963883146,126.624460986L373.927766293,176.782135848L304.89164944,226.93981071L235.855532586,277.097485573L166.819415733,327.255160435L97.78329888,377.412835297L97.78329888,377.412835298L124.152749066,458.569658021L150.522199253,539.726480745L176.89164944,620.883303469L203.261099626,702.040126193L229.630549813,783.196948917L256.0,864.353771641Z" fill="none" stroke="salmon" stroke-width="30"/>
  <path id="7p" d="M256.0,864.353771641L329.142857143,864.353771641L402.285714286,864.353771641L475.428571429,864.353771641L548.571428571,864.353771641L621.714285714,864.353771641L694.857142857,864.353771641L768.0,864.353771641L768.0,864.353771641L790.602385875,794.790780735L813.204771749,725.227789828L835.807157623,655.664798922L858.409543497,586.101808016L881.011929372,516.53881711L903.614315246,446.975826204L926.21670112,377.412835298L926.21670112,377.412835297L867.042886674,334.420542558L807.869072229,291.428249819L748.695257783,248.43595708L689.521443337,205.443664341L630.347628892,162.451371602L571.173814446,119.459078863L512.0,76.466786123L512.0,76.466786123L452.826185554,119.459078863L393.652371108,162.451371602L334.478556663,205.443664341L275.304742217,248.43595708L216.130927771,291.428249819L156.957113326,334.420542558L97.78329888,377.412835297L97.78329888,377.412835298L120.385684754,446.975826204L142.988070628,516.53881711L165.590456503,586.101808016L188.192842377,655.664798922L210.795228251,725.227789828L233.397614125,794.790780735L256.0,864.353771641Z" fill="none" stroke="darkslategray" stroke-width="20"/>
  <path id="8p" d="M256.0,864.353771641L320.0,864.353771641L384.0,864.353771641L448.0,864.353771641L512.0,864.353771641L576.0,864.353771641L640.0,864.353771641L704.0,864.353771641L768.0,864.353771641L768.0,864.353771641L787.77708764,803.486154598L807.55417528,742.618537555L827.33126292,681.750920512L847.10835056,620.883303469L866.8854382,560.015686426L886.66252584,499.148069383L906.43961348,438.280452341L926.21670112,377.412835298L926.21670112,377.412835297L874.43961348,339.79457915L822.66252584,302.176323004L770.8854382,264.558066857L719.10835056,226.93981071L667.33126292,189.321554564L615.55417528,151.703298417L563.77708764,114.08504227L512.0,76.466786123L512.0,76.466786123L460.22291236,114.08504227L408.44582472,151.703298417L356.66873708,189.321554564L304.89164944,226.93981071L253.1145618,264.558066857L201.33747416,302.176323004L149.56038652,339.79457915L97.78329888,377.412835297L97.78329888,377.412835298L117.56038652,438.280452341L137.33747416,499.148069383L157.1145618,560.015686426L176.89164944,620.883303469L196.66873708,681.750920512L216.44582472,742.618537555L236.22291236,803.486154598L256.0,864.353771641Z" fill="none" stroke="blue" stroke-width="10"/>
</svg>
